<svg version="1.1" xmlns="http://www.w3.org/2000/svg" xmlns:xlink="http://www.w3.org/1999/xlink" width="126.39741" height="126.39741" viewBox="0,0,126.39741,126.39741"><g transform="translate(-176.8013,-116.8013)"><g data-paper-data="{&quot;isPaintingLayer&quot;:true}" fill-rule="nonzero" stroke="none" stroke-linecap="butt" stroke-linejoin="miter" stroke-miterlimit="10" stroke-dasharray="" stroke-dashoffset="0" style="mix-blend-mode: normal"><path d="M176.8013,180c0,-34.90368 28.29502,-63.1987 63.1987,-63.1987c34.90368,0 63.1987,28.29502 63.1987,63.1987c0,34.90368 -28.29502,63.1987 -63.1987,63.1987c-34.90368,0 -63.1987,-28.29502 -63.1987,-63.1987z" fill="#ffffff" stroke-width="0"/><path d="M274.77818,177.14577c0,-6.86248 -5.5583,-12.42078 -12.42078,-12.42078h-1.22655c-0.01553,0 -0.01553,0 -0.01553,0h-21.11533h-2.48416v2.46863v0.01553v11.1787c0,3.43124 -2.77915,6.21039 -6.21039,6.21039c-3.43124,0 -6.21039,-2.77915 -6.21039,-6.21039v-18.63117h0.0621c0.62104,-5.58935 5.35646,-9.93662 11.1166,-9.93662h17.38909c0.43473,0 0.86945,0.03105 1.28866,0.07763l6.22592,-6.22592c3.40019,-3.40019 8.89638,-3.40019 12.29657,0l12.12579,12.11026c3.40019,3.40019 3.40019,8.89638 0,12.29657l-10.8216,10.8216v-0.51236zM242.48416,169.70882h18.63117c4.79753,0 8.67902,3.88149 8.69455,8.66349v0.0621c-0.01553,4.22307 -3.02756,7.73194 -7.01774,8.50823c1.27313,1.33523 2.04943,3.13625 2.04943,5.12357c0,4.11438 -3.33808,7.45247 -7.45247,7.45247h-0.4192c0.26394,0.7763 0.4192,1.6147 0.4192,2.48416c0,4.11438 -3.33808,7.45247 -7.45247,7.45247h-24.84156c-0.13973,0 -0.27947,-0.01553 -0.4192,-0.01553l-5.85329,5.85329c-3.40019,3.40019 -8.89638,3.40019 -12.29657,0l-12.12579,-12.12579c-3.40019,-3.40019 -3.40019,-8.89638 0,-12.29657l11.36501,-11.36501l2.56179,-8.94296c1.58365,-5.57382 6.22592,-9.6261 11.79974,-10.58871v18.41381c0,6.17934 4.99936,11.1787 11.1787,11.1787c6.17934,0 11.1787,-4.99936 11.1787,-11.1787v-8.69455z" fill="#000000" stroke-width="1"/></g></g></svg>
